HIERARCHY
ROOT hip
{
	OFFSET 0.000000 0.000000 0.000000 
	CHANNELS 6 Xposition Yposition Zposition Xrotation Zrotation Yrotation
	JOINT abdomen
	{
		OFFSET 0.000000 3.402643 0.000000 
		CHANNELS 3 Xrotation Zrotation Yrotation
		JOINT chest
		{
			OFFSET 0.000000 8.438565 -0.680529 
			CHANNELS 3 Xrotation Zrotation Yrotation
			JOINT neck
			{
				OFFSET 0.000000 10.207942 -0.272212 
				CHANNELS 3 Xrotation Zrotation Yrotation
				JOINT head
				{
					OFFSET 0.000000 3.130431 0.000000 
					CHANNELS 3 Xrotation Zrotation Yrotation
					End Site
					{
						OFFSET 0.000000 3.130435 0.000000 
					}
				}
			}
			JOINT lCollar
			{
				OFFSET 3.470700 6.669187 -0.816635 
				CHANNELS 3 Yrotation Zrotation Xrotation
				JOINT lShldr
				{
					OFFSET 3.198488 0.000000 0.000000 
					CHANNELS 3 Zrotation Yrotation Xrotation
					JOINT lForeArm
					{
						OFFSET 10.139888 0.000000 0.000000 
						CHANNELS 3 Yrotation Zrotation Xrotation
						JOINT lHand
						{
							OFFSET 8.370511 0.000000 0.000000 
							CHANNELS 3 Zrotation Yrotation Xrotation
							End Site
							{
								OFFSET 4.083176 0.000000 0.000000 
							}
						}
					}
				}
			}
			JOINT rCollar
			{
				OFFSET -3.470700 6.669187 -0.816635 
				CHANNELS 3 Yrotation Zrotation Xrotation
				JOINT rShldr
				{
					OFFSET -3.198488 0.000000 0.000000 
					CHANNELS 3 Zrotation Yrotation Xrotation
					JOINT rForeArm
					{
						OFFSET -10.139888 0.000000 0.000000 
						CHANNELS 3 Yrotation Zrotation Xrotation
						JOINT rHand
						{
							OFFSET -8.370511 0.000000 0.000000 
							CHANNELS 3 Zrotation Yrotation Xrotation
							End Site
							{
								OFFSET -4.083176 0.000000 0.000000 
							}
						}
					}
				}
			}
		}
	}
	JOINT lThigh
	{
		OFFSET 5.308129 -1.633274 1.361059 
		CHANNELS 3 Xrotation Zrotation Yrotation
		JOINT lShin
		{
			OFFSET -2.041588 -20.007561 0.000000 
			CHANNELS 3 Xrotation Zrotation Yrotation
			JOINT lFoot
			{
				OFFSET 0.000000 -19.190928 -1.224953 
				CHANNELS 3 Xrotation Yrotation Zrotation
				End Site
				{
					OFFSET 0.000000 -2.449906 4.627600 
				}
			}
		}
	}
	JOINT rThigh
	{
		OFFSET -5.308129 -1.633274 1.361059 
		CHANNELS 3 Xrotation Zrotation Yrotation
		JOINT rShin
		{
			OFFSET 2.041588 -20.007561 0.000000 
			CHANNELS 3 Xrotation Zrotation Yrotation
			JOINT rFoot
			{
				OFFSET 0.000000 -19.190928 -1.224953 
				CHANNELS 3 Xrotation Yrotation Zrotation
				End Site
				{
					OFFSET 0.000000 -2.449906 4.627600 
				}
			}
		}
	}
}
MOTION
Frames: 13
Frame Time: 0.011111
-2.356739 50.990631 -86.658195 3.243389 -1.915458 1.006254 40.097153 0.581055 -2.566514 -27.830845 -0.501557 -0.697618 -6.900185 -0.405756 0.808444 -15.384997 0.590447 1.509652 8.861669 -1.932660 3.351237 -68.837364 -28.004339 45.163708 -90.676163 6.298612 35.561111 8.524705 12.647240 -11.741590 -6.806992 -0.756156 2.905732 62.269428 18.912506 47.638504 86.312531 -1.360433 30.438898 -8.534408 -12.637552 45.267437 -22.656170 4.189737 1.401007 43.098297 -4.440161 -6.456580 -16.476915 -7.555170 -5.297396 1.444909 -2.577246 -5.556836 92.971863 -1.640002 9.759480 20.072588 -16.311586 7.198967 
-2.420712 50.852386 -85.273560 2.957712 -0.184725 1.682159 41.437351 -1.169243 -4.254645 -27.615702 -0.032804 -0.892440 -8.375327 -0.234390 0.696508 -15.141955 0.786127 1.275007 8.861669 -1.932660 3.351237 -68.539627 -32.208530 46.482876 -90.426743 6.122355 35.416607 8.524705 12.647240 -12.552136 -6.806992 -0.756156 2.905732 63.444881 18.654696 45.385708 86.259636 -1.280420 30.081387 -8.534408 -12.637552 44.310410 -20.285643 2.098470 1.196818 43.090019 -4.416608 -6.456709 -17.505863 -7.692757 -5.423924 -1.727818 -5.465630 -7.089707 96.616364 -2.167389 9.763075 18.574757 -15.485625 6.650700 
-2.430699 50.636124 -83.787178 3.154861 1.341094 0.866343 41.462685 -3.311446 -5.016768 -27.245264 0.360096 -0.796107 -8.678750 -0.320840 0.624346 -15.581953 1.023022 1.082480 8.861669 -1.932660 3.351237 -68.453972 -35.456547 47.317505 -90.230476 5.978947 35.284660 8.524705 12.647240 -12.991590 -6.806992 -0.756156 2.905732 64.275566 17.861300 43.453384 86.207153 -1.264245 29.690582 -8.534408 -12.637552 43.314312 -18.349552 0.615606 1.781006 43.335602 -4.410925 -6.485437 -19.279707 -7.472783 -5.482749 -5.760120 -7.897647 -6.454539 99.979553 -2.646449 9.768444 17.042753 -14.472178 6.086467 
-2.467834 50.548428 -82.370697 3.351008 1.702168 0.500976 41.567799 -3.978498 -5.328709 -27.382483 0.624722 -0.793470 -8.346328 -0.534308 0.740131 -16.293625 1.455505 1.189537 8.861669 -1.932660 3.351237 -68.602921 -38.218506 47.610481 -90.147476 5.915045 35.234432 8.524705 12.647240 -13.157605 -6.806992 -0.756156 2.905732 64.900337 16.768335 41.810471 86.154297 -1.296941 29.335680 -8.534408 -12.637552 42.396343 -16.786043 0.312922 1.896668 43.512753 -4.401237 -6.506746 -20.675001 -7.442015 -5.570642 -9.594979 -8.910743 -6.275812 102.732071 -3.056420 9.725311 15.318420 -13.371844 5.515440 
-2.465026 50.452629 -80.937683 3.770567 1.346780 0.206397 41.179329 -3.704244 -5.176728 -27.460686 0.662344 -0.799591 -7.964216 -0.677008 0.950817 -16.846939 1.587999 1.559770 8.861669 -1.932660 3.351237 -69.115044 -40.815918 47.824535 -90.120934 5.896675 35.213963 8.524705 12.647240 -13.118542 -6.806992 -0.756156 2.905732 65.372887 15.538957 40.359737 86.099632 -1.369767 29.026773 -8.534408 -12.637552 41.800636 -15.599748 0.692954 1.952657 43.701778 -4.364866 -6.519424 -21.987738 -7.432028 -5.641182 -13.417722 -8.740108 -5.886251 104.911621 -3.359319 9.705097 13.098892 -12.420284 5.002380 
-2.448174 50.386154 -79.509033 4.141562 1.220911 0.176708 41.007446 -3.440580 -5.221949 -27.353151 0.656037 -0.856420 -8.314352 -0.543273 1.086359 -16.883801 1.198002 1.911009 8.861669 -1.932660 3.351237 -69.733727 -43.591557 48.288788 -90.036034 5.833197 35.153168 8.524705 12.647240 -13.313855 -6.806992 -0.756156 2.905732 65.954536 14.692818 38.784954 86.046860 -1.454973 28.775890 -8.534408 -12.637552 41.390484 -14.035519 0.761044 1.972997 43.553871 -4.377713 -6.501144 -22.953333 -7.491052 -5.712921 -17.026363 -8.786141 -5.598815 106.479210 -3.592906 9.660613 11.190294 -11.798491 4.645291 
-2.443805 50.360565 -78.097549 4.405828 1.522663 0.323209 41.014370 -3.447621 -5.767863 -27.167488 0.710082 -0.989045 -8.986949 -0.387478 1.182759 -16.502499 0.867992 2.189470 8.861669 -1.932660 3.351237 -70.358459 -46.102551 48.566330 -89.995735 5.800555 35.132977 8.524705 12.647240 -13.870496 -6.806992 -0.756156 2.905732 66.671700 14.061152 37.334717 86.000549 -1.523630 28.574888 -8.534408 -12.637552 40.892437 -12.066256 0.361230 1.999085 43.080330 -4.423270 -6.438998 -23.397194 -7.852754 -5.906026 -20.678108 -9.323485 -5.320454 107.600136 -3.729814 9.628460 10.204413 -11.310719 4.434707 
-2.466898 50.414551 -76.673584 4.563354 2.057241 0.615057 41.109398 -3.693879 -6.712108 -27.294600 0.936329 -1.198383 -9.073596 -0.174212 1.268769 -16.278889 0.512111 2.466861 8.861669 -1.932660 3.351237 -70.921555 -47.999741 48.619911 -90.044525 5.839831 35.163239 8.524705 12.647240 -14.388075 -6.806992 -0.756156 2.905732 67.231445 13.097856 36.196987 85.969444 -1.580343 28.463037 -8.534408 -12.637552 40.589703 -9.832800 -0.292789 1.735295 42.082191 -4.518104 -6.338873 -23.182127 -7.903158 -5.894043 -24.177174 -10.126021 -5.068424 108.174080 -3.828336 9.619097 9.563166 -10.754230 4.279596 
-2.489680 50.593681 -75.193436 4.711682 2.630924 0.893107 41.282791 -3.966891 -7.724956 -27.421722 1.168705 -1.429390 -9.433399 0.108701 1.374787 -15.958701 0.154708 2.799637 8.861669 -1.932660 3.351237 -71.417816 -49.668236 48.609142 -90.170341 5.935358 35.244286 8.524705 12.647240 -14.817760 -6.806992 -0.756156 2.905732 67.767365 12.224016 35.303959 85.958427 -1.596183 28.432493 -8.534408 -12.637552 40.589703 -7.272079 -0.975831 1.342000 40.669464 -4.635067 -6.169908 -22.623405 -7.899196 -5.870040 -27.359066 -10.867496 -4.599245 107.960281 -3.788151 9.621249 9.297574 -10.154508 4.128823 
-2.498729 50.831791 -73.622490 4.938112 2.986056 0.836362 40.948898 -4.016852 -8.516203 -27.607777 1.450757 -1.640797 -9.352414 0.017863 1.676122 -15.604805 0.023600 3.398462 8.861669 -1.932660 3.351237 -71.929535 -50.583893 48.270473 -90.367355 6.078524 35.376049 8.524705 12.647240 -15.003309 -6.806992 -0.756156 2.905732 67.774162 11.077353 35.000889 85.955070 -1.604824 28.421892 -8.534408 -12.637552 40.599468 -4.581995 -1.374583 1.177459 38.908703 -4.771420 -5.965327 -21.751909 -7.878766 -5.816557 -30.190525 -10.994465 -3.739630 107.142021 -3.671274 9.643217 9.062365 -9.633400 4.008399 
-2.486871 51.055851 -72.024704 5.066693 3.256052 0.651365 40.268028 -3.728793 -9.529065 -28.215946 2.150523 -2.010218 -7.659840 -0.851635 2.249261 -16.148855 0.153392 4.321674 8.861669 -1.932660 3.351237 -72.723938 -50.141991 47.359264 -90.670273 6.291532 35.570351 8.524705 12.647240 -15.325572 -6.806992 -0.756156 2.905732 66.724739 9.335999 35.554775 85.963463 -1.587860 28.442772 -8.534408 -12.637552 40.706890 -1.961075 -1.726695 1.099977 37.036541 -4.907883 -5.737751 -20.352659 -7.459382 -5.540137 -32.678005 -10.915410 -2.698999 105.837051 -3.485856 9.674812 8.470333 -8.734107 3.818988 
-2.487183 51.314556 -70.441887 5.254011 3.526215 0.687496 40.242069 -3.831162 -9.835561 -27.872999 2.025711 -2.056651 -8.976583 -0.297981 2.186850 -15.416416 -0.307285 4.373401 8.861669 -1.932660 3.351237 -73.100609 -51.686581 47.926846 -90.902702 6.454123 35.704994 8.524705 12.647240 -15.452530 -6.806992 -0.756156 2.905732 67.524345 8.814281 34.582214 85.964432 -1.588043 28.442743 -8.534408 -12.637552 40.667828 0.428781 -2.057845 0.725034 35.210457 -5.034771 -5.518039 -18.532959 -7.096061 -5.284592 -35.037312 -10.888391 -1.839871 104.132996 -3.250690 9.718478 7.530664 -7.615582 3.593298 
-2.526503 51.587616 -68.862518 5.507550 3.426090 0.997297 39.934574 -3.402399 -10.320451 -27.697178 2.162299 -2.246225 -9.473330 0.127808 2.193703 -15.233584 -0.970452 4.583787 8.861669 -1.932660 3.351237 -73.560356 -52.479630 48.188236 -91.248619 6.679481 35.912491 8.524705 12.647240 -15.100965 -6.806992 -0.756156 2.905732 67.804771 7.989292 34.151821 85.978134 -1.564039 28.493649 -8.534408 -12.637552 40.550640 2.693471 -1.854075 0.196579 33.322052 -5.151498 -5.287309 -16.217482 -7.086323 -5.113568 -36.966599 -10.564896 -1.526717 102.021515 -2.949326 9.749814 5.755898 -6.366512 3.378044 
